G04 (created by PCBNEW (2013-07-07 BZR 4022)-stable) date 2014-02-06 11:32:22 PM*
%MOIN*%
G04 Gerber Fmt 3.4, Leading zero omitted, Abs format*
%FSLAX34Y34*%
G01*
G70*
G90*
G04 APERTURE LIST*
%ADD10C,0.00590551*%
G04 APERTURE END LIST*
G54D10*
X17020Y-20395D02*
X17020Y-20690D01*
X17020Y-20409D02*
X16992Y-20395D01*
X16936Y-20395D01*
X16908Y-20409D01*
X16893Y-20423D01*
X16879Y-20451D01*
X16879Y-20535D01*
X16893Y-20563D01*
X16908Y-20577D01*
X16936Y-20591D01*
X16992Y-20591D01*
X17020Y-20577D01*
X16626Y-20591D02*
X16626Y-20437D01*
X16640Y-20409D01*
X16669Y-20395D01*
X16725Y-20395D01*
X16753Y-20409D01*
X16626Y-20577D02*
X16654Y-20591D01*
X16725Y-20591D01*
X16753Y-20577D01*
X16767Y-20549D01*
X16767Y-20521D01*
X16753Y-20493D01*
X16725Y-20479D01*
X16654Y-20479D01*
X16626Y-20465D01*
X16359Y-20395D02*
X16359Y-20591D01*
X16486Y-20395D02*
X16486Y-20549D01*
X16472Y-20577D01*
X16444Y-20591D01*
X16401Y-20591D01*
X16373Y-20577D01*
X16359Y-20563D01*
X16176Y-20591D02*
X16205Y-20577D01*
X16219Y-20549D01*
X16219Y-20296D01*
X16106Y-20395D02*
X15994Y-20395D01*
X16064Y-20296D02*
X16064Y-20549D01*
X16050Y-20577D01*
X16022Y-20591D01*
X15994Y-20591D01*
X15923Y-20395D02*
X15853Y-20591D01*
X15783Y-20395D02*
X15853Y-20591D01*
X15881Y-20662D01*
X15895Y-20676D01*
X15923Y-20690D01*
X15628Y-20591D02*
X15656Y-20577D01*
X15670Y-20563D01*
X15684Y-20535D01*
X15684Y-20451D01*
X15670Y-20423D01*
X15656Y-20409D01*
X15628Y-20395D01*
X15586Y-20395D01*
X15558Y-20409D01*
X15544Y-20423D01*
X15530Y-20451D01*
X15530Y-20535D01*
X15544Y-20563D01*
X15558Y-20577D01*
X15586Y-20591D01*
X15628Y-20591D01*
X15276Y-20395D02*
X15276Y-20591D01*
X15403Y-20395D02*
X15403Y-20549D01*
X15389Y-20577D01*
X15361Y-20591D01*
X15319Y-20591D01*
X15291Y-20577D01*
X15276Y-20563D01*
X15136Y-20395D02*
X15136Y-20591D01*
X15136Y-20423D02*
X15122Y-20409D01*
X15094Y-20395D01*
X15052Y-20395D01*
X15023Y-20409D01*
X15009Y-20437D01*
X15009Y-20591D01*
X14742Y-20395D02*
X14742Y-20634D01*
X14756Y-20662D01*
X14770Y-20676D01*
X14798Y-20690D01*
X14841Y-20690D01*
X14869Y-20676D01*
X14742Y-20577D02*
X14770Y-20591D01*
X14827Y-20591D01*
X14855Y-20577D01*
X14869Y-20563D01*
X14883Y-20535D01*
X14883Y-20451D01*
X14869Y-20423D01*
X14855Y-20409D01*
X14827Y-20395D01*
X14770Y-20395D01*
X14742Y-20409D01*
X14602Y-20563D02*
X14588Y-20577D01*
X14602Y-20591D01*
X14616Y-20577D01*
X14602Y-20563D01*
X14602Y-20591D01*
X14334Y-20577D02*
X14363Y-20591D01*
X14419Y-20591D01*
X14447Y-20577D01*
X14461Y-20563D01*
X14475Y-20535D01*
X14475Y-20451D01*
X14461Y-20423D01*
X14447Y-20409D01*
X14419Y-20395D01*
X14363Y-20395D01*
X14334Y-20409D01*
X14081Y-20591D02*
X14081Y-20437D01*
X14095Y-20409D01*
X14124Y-20395D01*
X14180Y-20395D01*
X14208Y-20409D01*
X14081Y-20577D02*
X14109Y-20591D01*
X14180Y-20591D01*
X14208Y-20577D01*
X14222Y-20549D01*
X14222Y-20521D01*
X14208Y-20493D01*
X14180Y-20479D01*
X14109Y-20479D01*
X14081Y-20465D01*
M02*
