G04 (created by PCBNEW (2013-07-07 BZR 4022)-stable) date 2014-02-06 11:32:22 PM*
%MOIN*%
G04 Gerber Fmt 3.4, Leading zero omitted, Abs format*
%FSLAX34Y34*%
G01*
G70*
G90*
G04 APERTURE LIST*
%ADD10C,0.00590551*%
%ADD11R,0.055X0.055*%
%ADD12C,0.055*%
%ADD13C,0.035*%
%ADD14C,0.01*%
G04 APERTURE END LIST*
G54D10*
G54D11*
X10629Y-16354D03*
G54D12*
X10629Y-15354D03*
X10629Y-14354D03*
G54D11*
X20866Y-14354D03*
G54D12*
X20866Y-15354D03*
X20866Y-16354D03*
G54D13*
X17913Y-13188D03*
X13385Y-19440D03*
G54D10*
G36*
X21209Y-19664D02*
X21163Y-19710D01*
X20451Y-20422D01*
X11154Y-20422D01*
X11154Y-16678D01*
X11154Y-16466D01*
X11092Y-16404D01*
X10679Y-16404D01*
X10679Y-16816D01*
X10742Y-16879D01*
X10855Y-16879D01*
X10954Y-16879D01*
X11046Y-16841D01*
X11116Y-16770D01*
X11154Y-16678D01*
X11154Y-20422D01*
X11044Y-20422D01*
X10286Y-19664D01*
X10286Y-16871D01*
X10304Y-16879D01*
X10404Y-16879D01*
X10517Y-16879D01*
X10579Y-16816D01*
X10579Y-16404D01*
X10572Y-16404D01*
X10572Y-16304D01*
X10579Y-16304D01*
X10579Y-16296D01*
X10679Y-16296D01*
X10679Y-16304D01*
X11092Y-16304D01*
X11154Y-16241D01*
X11154Y-16029D01*
X11116Y-15937D01*
X11046Y-15867D01*
X10954Y-15829D01*
X10855Y-15829D01*
X10855Y-15829D01*
X10926Y-15799D01*
X11074Y-15652D01*
X11154Y-15459D01*
X11155Y-15250D01*
X11075Y-15057D01*
X10927Y-14909D01*
X10794Y-14854D01*
X10926Y-14799D01*
X11074Y-14652D01*
X11154Y-14459D01*
X11155Y-14250D01*
X11075Y-14057D01*
X10927Y-13909D01*
X10734Y-13829D01*
X10525Y-13829D01*
X10332Y-13908D01*
X10286Y-13955D01*
X10286Y-11044D01*
X10665Y-10665D01*
X11044Y-10286D01*
X20451Y-10286D01*
X21209Y-11044D01*
X21209Y-13837D01*
X21191Y-13829D01*
X21091Y-13829D01*
X20541Y-13829D01*
X20449Y-13867D01*
X20379Y-13937D01*
X20341Y-14029D01*
X20341Y-14128D01*
X20341Y-14678D01*
X20379Y-14770D01*
X20449Y-14841D01*
X20541Y-14879D01*
X20640Y-14879D01*
X20640Y-14879D01*
X20569Y-14908D01*
X20421Y-15056D01*
X20341Y-15249D01*
X20341Y-15458D01*
X20420Y-15651D01*
X20568Y-15799D01*
X20694Y-15851D01*
X20593Y-15893D01*
X20569Y-15986D01*
X20866Y-16283D01*
X20871Y-16278D01*
X20942Y-16348D01*
X20936Y-16354D01*
X20942Y-16359D01*
X20871Y-16430D01*
X20866Y-16425D01*
X20795Y-16495D01*
X20795Y-16354D01*
X20498Y-16057D01*
X20405Y-16081D01*
X20336Y-16278D01*
X20347Y-16487D01*
X20405Y-16627D01*
X20498Y-16651D01*
X20795Y-16354D01*
X20795Y-16495D01*
X20569Y-16722D01*
X20593Y-16814D01*
X20790Y-16884D01*
X20998Y-16872D01*
X21138Y-16814D01*
X21163Y-16722D01*
X21163Y-16722D01*
X21208Y-16767D01*
X21209Y-16766D01*
X21209Y-19664D01*
X21209Y-19664D01*
G37*
G54D14*
X21209Y-19664D02*
X21163Y-19710D01*
X20451Y-20422D01*
X11154Y-20422D01*
X11154Y-16678D01*
X11154Y-16466D01*
X11092Y-16404D01*
X10679Y-16404D01*
X10679Y-16816D01*
X10742Y-16879D01*
X10855Y-16879D01*
X10954Y-16879D01*
X11046Y-16841D01*
X11116Y-16770D01*
X11154Y-16678D01*
X11154Y-20422D01*
X11044Y-20422D01*
X10286Y-19664D01*
X10286Y-16871D01*
X10304Y-16879D01*
X10404Y-16879D01*
X10517Y-16879D01*
X10579Y-16816D01*
X10579Y-16404D01*
X10572Y-16404D01*
X10572Y-16304D01*
X10579Y-16304D01*
X10579Y-16296D01*
X10679Y-16296D01*
X10679Y-16304D01*
X11092Y-16304D01*
X11154Y-16241D01*
X11154Y-16029D01*
X11116Y-15937D01*
X11046Y-15867D01*
X10954Y-15829D01*
X10855Y-15829D01*
X10855Y-15829D01*
X10926Y-15799D01*
X11074Y-15652D01*
X11154Y-15459D01*
X11155Y-15250D01*
X11075Y-15057D01*
X10927Y-14909D01*
X10794Y-14854D01*
X10926Y-14799D01*
X11074Y-14652D01*
X11154Y-14459D01*
X11155Y-14250D01*
X11075Y-14057D01*
X10927Y-13909D01*
X10734Y-13829D01*
X10525Y-13829D01*
X10332Y-13908D01*
X10286Y-13955D01*
X10286Y-11044D01*
X10665Y-10665D01*
X11044Y-10286D01*
X20451Y-10286D01*
X21209Y-11044D01*
X21209Y-13837D01*
X21191Y-13829D01*
X21091Y-13829D01*
X20541Y-13829D01*
X20449Y-13867D01*
X20379Y-13937D01*
X20341Y-14029D01*
X20341Y-14128D01*
X20341Y-14678D01*
X20379Y-14770D01*
X20449Y-14841D01*
X20541Y-14879D01*
X20640Y-14879D01*
X20640Y-14879D01*
X20569Y-14908D01*
X20421Y-15056D01*
X20341Y-15249D01*
X20341Y-15458D01*
X20420Y-15651D01*
X20568Y-15799D01*
X20694Y-15851D01*
X20593Y-15893D01*
X20569Y-15986D01*
X20866Y-16283D01*
X20871Y-16278D01*
X20942Y-16348D01*
X20936Y-16354D01*
X20942Y-16359D01*
X20871Y-16430D01*
X20866Y-16425D01*
X20795Y-16495D01*
X20795Y-16354D01*
X20498Y-16057D01*
X20405Y-16081D01*
X20336Y-16278D01*
X20347Y-16487D01*
X20405Y-16627D01*
X20498Y-16651D01*
X20795Y-16354D01*
X20795Y-16495D01*
X20569Y-16722D01*
X20593Y-16814D01*
X20790Y-16884D01*
X20998Y-16872D01*
X21138Y-16814D01*
X21163Y-16722D01*
X21163Y-16722D01*
X21208Y-16767D01*
X21209Y-16766D01*
X21209Y-19664D01*
M02*
