G04 (created by PCBNEW (2013-07-07 BZR 4022)-stable) date 2014-02-06 11:32:22 PM*
%MOIN*%
G04 Gerber Fmt 3.4, Leading zero omitted, Abs format*
%FSLAX34Y34*%
G01*
G70*
G90*
G04 APERTURE LIST*
%ADD10C,0.00590551*%
%ADD11C,0.005*%
%ADD12C,0.012*%
%ADD13C,0.0106*%
G04 APERTURE END LIST*
G54D10*
X13034Y-10060D02*
X13104Y-10355D01*
X13160Y-10144D01*
X13217Y-10355D01*
X13287Y-10060D01*
X13385Y-10341D02*
X13428Y-10355D01*
X13498Y-10355D01*
X13526Y-10341D01*
X13540Y-10327D01*
X13554Y-10299D01*
X13554Y-10271D01*
X13540Y-10243D01*
X13526Y-10229D01*
X13498Y-10215D01*
X13442Y-10201D01*
X13413Y-10187D01*
X13399Y-10172D01*
X13385Y-10144D01*
X13385Y-10116D01*
X13399Y-10088D01*
X13413Y-10074D01*
X13442Y-10060D01*
X13512Y-10060D01*
X13554Y-10074D01*
X13667Y-10088D02*
X13681Y-10074D01*
X13709Y-10060D01*
X13779Y-10060D01*
X13807Y-10074D01*
X13821Y-10088D01*
X13835Y-10116D01*
X13835Y-10144D01*
X13821Y-10187D01*
X13652Y-10355D01*
X13835Y-10355D01*
X14004Y-10187D02*
X13976Y-10172D01*
X13962Y-10158D01*
X13948Y-10130D01*
X13948Y-10116D01*
X13962Y-10088D01*
X13976Y-10074D01*
X14004Y-10060D01*
X14060Y-10060D01*
X14088Y-10074D01*
X14102Y-10088D01*
X14116Y-10116D01*
X14116Y-10130D01*
X14102Y-10158D01*
X14088Y-10172D01*
X14060Y-10187D01*
X14004Y-10187D01*
X13976Y-10201D01*
X13962Y-10215D01*
X13948Y-10243D01*
X13948Y-10299D01*
X13962Y-10327D01*
X13976Y-10341D01*
X14004Y-10355D01*
X14060Y-10355D01*
X14088Y-10341D01*
X14102Y-10327D01*
X14116Y-10299D01*
X14116Y-10243D01*
X14102Y-10215D01*
X14088Y-10201D01*
X14060Y-10187D01*
X14398Y-10355D02*
X14229Y-10355D01*
X14313Y-10355D02*
X14313Y-10060D01*
X14285Y-10102D01*
X14257Y-10130D01*
X14229Y-10144D01*
X14510Y-10088D02*
X14524Y-10074D01*
X14552Y-10060D01*
X14623Y-10060D01*
X14651Y-10074D01*
X14665Y-10088D01*
X14679Y-10116D01*
X14679Y-10144D01*
X14665Y-10187D01*
X14496Y-10355D01*
X14679Y-10355D01*
X15185Y-10074D02*
X15157Y-10060D01*
X15115Y-10060D01*
X15073Y-10074D01*
X15044Y-10102D01*
X15030Y-10130D01*
X15016Y-10187D01*
X15016Y-10229D01*
X15030Y-10285D01*
X15044Y-10313D01*
X15073Y-10341D01*
X15115Y-10355D01*
X15143Y-10355D01*
X15185Y-10341D01*
X15199Y-10327D01*
X15199Y-10229D01*
X15143Y-10229D01*
X15326Y-10355D02*
X15326Y-10158D01*
X15326Y-10215D02*
X15340Y-10187D01*
X15354Y-10172D01*
X15382Y-10158D01*
X15410Y-10158D01*
X15508Y-10355D02*
X15508Y-10158D01*
X15508Y-10060D02*
X15494Y-10074D01*
X15508Y-10088D01*
X15523Y-10074D01*
X15508Y-10060D01*
X15508Y-10088D01*
X15776Y-10355D02*
X15776Y-10060D01*
X15776Y-10341D02*
X15748Y-10355D01*
X15691Y-10355D01*
X15663Y-10341D01*
X15649Y-10327D01*
X15635Y-10299D01*
X15635Y-10215D01*
X15649Y-10187D01*
X15663Y-10172D01*
X15691Y-10158D01*
X15748Y-10158D01*
X15776Y-10172D01*
X16240Y-10201D02*
X16282Y-10215D01*
X16296Y-10229D01*
X16310Y-10257D01*
X16310Y-10299D01*
X16296Y-10327D01*
X16282Y-10341D01*
X16254Y-10355D01*
X16141Y-10355D01*
X16141Y-10060D01*
X16240Y-10060D01*
X16268Y-10074D01*
X16282Y-10088D01*
X16296Y-10116D01*
X16296Y-10144D01*
X16282Y-10172D01*
X16268Y-10187D01*
X16240Y-10201D01*
X16141Y-10201D01*
X16479Y-10355D02*
X16451Y-10341D01*
X16437Y-10327D01*
X16422Y-10299D01*
X16422Y-10215D01*
X16437Y-10187D01*
X16451Y-10172D01*
X16479Y-10158D01*
X16521Y-10158D01*
X16549Y-10172D01*
X16563Y-10187D01*
X16577Y-10215D01*
X16577Y-10299D01*
X16563Y-10327D01*
X16549Y-10341D01*
X16521Y-10355D01*
X16479Y-10355D01*
X16830Y-10355D02*
X16830Y-10201D01*
X16816Y-10172D01*
X16788Y-10158D01*
X16732Y-10158D01*
X16704Y-10172D01*
X16830Y-10341D02*
X16802Y-10355D01*
X16732Y-10355D01*
X16704Y-10341D01*
X16690Y-10313D01*
X16690Y-10285D01*
X16704Y-10257D01*
X16732Y-10243D01*
X16802Y-10243D01*
X16830Y-10229D01*
X16971Y-10355D02*
X16971Y-10158D01*
X16971Y-10215D02*
X16985Y-10187D01*
X16999Y-10172D01*
X17027Y-10158D01*
X17055Y-10158D01*
X17280Y-10355D02*
X17280Y-10060D01*
X17280Y-10341D02*
X17252Y-10355D01*
X17196Y-10355D01*
X17168Y-10341D01*
X17154Y-10327D01*
X17140Y-10299D01*
X17140Y-10215D01*
X17154Y-10187D01*
X17168Y-10172D01*
X17196Y-10158D01*
X17252Y-10158D01*
X17280Y-10172D01*
X17618Y-10158D02*
X17688Y-10355D01*
X17758Y-10158D01*
X17927Y-10060D02*
X17955Y-10060D01*
X17983Y-10074D01*
X17997Y-10088D01*
X18011Y-10116D01*
X18025Y-10172D01*
X18025Y-10243D01*
X18011Y-10299D01*
X17997Y-10327D01*
X17983Y-10341D01*
X17955Y-10355D01*
X17927Y-10355D01*
X17899Y-10341D01*
X17885Y-10327D01*
X17871Y-10299D01*
X17857Y-10243D01*
X17857Y-10172D01*
X17871Y-10116D01*
X17885Y-10088D01*
X17899Y-10074D01*
X17927Y-10060D01*
X18152Y-10327D02*
X18166Y-10341D01*
X18152Y-10355D01*
X18138Y-10341D01*
X18152Y-10327D01*
X18152Y-10355D01*
X18447Y-10355D02*
X18278Y-10355D01*
X18363Y-10355D02*
X18363Y-10060D01*
X18335Y-10102D01*
X18307Y-10130D01*
X18278Y-10144D01*
X15551Y-14370D02*
X15354Y-14173D01*
X15944Y-14370D02*
X15551Y-14763D01*
X17519Y-16338D02*
X17519Y-14370D01*
X17519Y-14370D02*
X15551Y-14370D01*
X15551Y-14370D02*
X15551Y-16338D01*
X15551Y-16338D02*
X17519Y-16338D01*
G54D11*
X12935Y-14779D02*
X13835Y-14779D01*
X13835Y-14779D02*
X13835Y-14129D01*
X12935Y-13429D02*
X12935Y-12779D01*
X12935Y-12779D02*
X13835Y-12779D01*
X13835Y-12779D02*
X13835Y-13429D01*
X12935Y-14129D02*
X12935Y-14779D01*
X13835Y-15929D02*
X12935Y-15929D01*
X12935Y-15929D02*
X12935Y-16579D01*
X13835Y-17279D02*
X13835Y-17929D01*
X13835Y-17929D02*
X12935Y-17929D01*
X12935Y-17929D02*
X12935Y-17279D01*
X13835Y-16579D02*
X13835Y-15929D01*
G54D12*
X11129Y-16854D02*
X10129Y-16854D01*
X10129Y-16854D02*
X10129Y-13854D01*
X10129Y-13854D02*
X11129Y-13854D01*
X11129Y-13854D02*
X11129Y-16854D01*
X10129Y-15854D02*
X11129Y-15854D01*
X20366Y-13854D02*
X21366Y-13854D01*
X21366Y-13854D02*
X21366Y-16854D01*
X21366Y-16854D02*
X20366Y-16854D01*
X20366Y-16854D02*
X20366Y-13854D01*
X21366Y-14854D02*
X20366Y-14854D01*
G54D10*
X16151Y-14253D02*
X16151Y-13860D01*
X16563Y-14216D02*
X16544Y-14235D01*
X16488Y-14253D01*
X16451Y-14253D01*
X16394Y-14235D01*
X16357Y-14197D01*
X16338Y-14160D01*
X16319Y-14085D01*
X16319Y-14028D01*
X16338Y-13953D01*
X16357Y-13916D01*
X16394Y-13878D01*
X16451Y-13860D01*
X16488Y-13860D01*
X16544Y-13878D01*
X16563Y-13897D01*
X16938Y-14253D02*
X16713Y-14253D01*
X16826Y-14253D02*
X16826Y-13860D01*
X16788Y-13916D01*
X16751Y-13953D01*
X16713Y-13972D01*
X15429Y-16419D02*
X15523Y-16812D01*
X15598Y-16531D01*
X15673Y-16812D01*
X15766Y-16419D01*
X15898Y-16794D02*
X15954Y-16812D01*
X16047Y-16812D01*
X16085Y-16794D01*
X16104Y-16775D01*
X16122Y-16737D01*
X16122Y-16700D01*
X16104Y-16662D01*
X16085Y-16644D01*
X16047Y-16625D01*
X15973Y-16606D01*
X15935Y-16587D01*
X15916Y-16569D01*
X15898Y-16531D01*
X15898Y-16494D01*
X15916Y-16456D01*
X15935Y-16437D01*
X15973Y-16419D01*
X16066Y-16419D01*
X16122Y-16437D01*
X16272Y-16456D02*
X16291Y-16437D01*
X16329Y-16419D01*
X16422Y-16419D01*
X16460Y-16437D01*
X16479Y-16456D01*
X16497Y-16494D01*
X16497Y-16531D01*
X16479Y-16587D01*
X16254Y-16812D01*
X16497Y-16812D01*
X16722Y-16587D02*
X16685Y-16569D01*
X16666Y-16550D01*
X16647Y-16512D01*
X16647Y-16494D01*
X16666Y-16456D01*
X16685Y-16437D01*
X16722Y-16419D01*
X16797Y-16419D01*
X16835Y-16437D01*
X16854Y-16456D01*
X16872Y-16494D01*
X16872Y-16512D01*
X16854Y-16550D01*
X16835Y-16569D01*
X16797Y-16587D01*
X16722Y-16587D01*
X16685Y-16606D01*
X16666Y-16625D01*
X16647Y-16662D01*
X16647Y-16737D01*
X16666Y-16775D01*
X16685Y-16794D01*
X16722Y-16812D01*
X16797Y-16812D01*
X16835Y-16794D01*
X16854Y-16775D01*
X16872Y-16737D01*
X16872Y-16662D01*
X16854Y-16625D01*
X16835Y-16606D01*
X16797Y-16587D01*
X17247Y-16812D02*
X17022Y-16812D01*
X17135Y-16812D02*
X17135Y-16419D01*
X17097Y-16475D01*
X17060Y-16512D01*
X17022Y-16531D01*
X17397Y-16456D02*
X17416Y-16437D01*
X17454Y-16419D01*
X17547Y-16419D01*
X17585Y-16437D01*
X17604Y-16456D01*
X17622Y-16494D01*
X17622Y-16531D01*
X17604Y-16587D01*
X17379Y-16812D01*
X17622Y-16812D01*
X16404Y-15476D02*
X16422Y-15494D01*
X16404Y-15513D01*
X16385Y-15494D01*
X16404Y-15476D01*
X16404Y-15513D01*
X16404Y-15269D02*
X16422Y-15288D01*
X16404Y-15307D01*
X16385Y-15288D01*
X16404Y-15269D01*
X16404Y-15307D01*
X16554Y-15663D02*
X16572Y-15644D01*
X16610Y-15588D01*
X16629Y-15551D01*
X16647Y-15494D01*
X16666Y-15401D01*
X16666Y-15326D01*
X16647Y-15232D01*
X16629Y-15176D01*
X16610Y-15138D01*
X16572Y-15082D01*
X16554Y-15063D01*
G54D11*
X12719Y-13829D02*
X12576Y-13929D01*
X12719Y-14000D02*
X12419Y-14000D01*
X12419Y-13886D01*
X12434Y-13858D01*
X12448Y-13843D01*
X12476Y-13829D01*
X12519Y-13829D01*
X12548Y-13843D01*
X12562Y-13858D01*
X12576Y-13886D01*
X12576Y-14000D01*
X12719Y-13543D02*
X12719Y-13715D01*
X12719Y-13629D02*
X12419Y-13629D01*
X12462Y-13658D01*
X12491Y-13686D01*
X12505Y-13715D01*
X12691Y-16979D02*
X12705Y-16993D01*
X12719Y-17036D01*
X12719Y-17064D01*
X12705Y-17107D01*
X12676Y-17136D01*
X12648Y-17150D01*
X12591Y-17164D01*
X12548Y-17164D01*
X12491Y-17150D01*
X12462Y-17136D01*
X12434Y-17107D01*
X12419Y-17064D01*
X12419Y-17036D01*
X12434Y-16993D01*
X12448Y-16979D01*
X12719Y-16693D02*
X12719Y-16864D01*
X12719Y-16779D02*
X12419Y-16779D01*
X12462Y-16807D01*
X12491Y-16836D01*
X12505Y-16864D01*
G54D13*
X10915Y-17635D02*
X10210Y-17635D01*
X10915Y-17393D02*
X10512Y-17575D01*
X10210Y-17393D02*
X10613Y-17635D01*
X10915Y-16989D02*
X10915Y-17231D01*
X10915Y-17110D02*
X10210Y-17110D01*
X10310Y-17151D01*
X10378Y-17191D01*
X10411Y-17231D01*
G54D12*
G54D13*
X21151Y-17635D02*
X20446Y-17635D01*
X21151Y-17393D02*
X20748Y-17575D01*
X20446Y-17393D02*
X20849Y-17635D01*
X20513Y-17231D02*
X20480Y-17211D01*
X20446Y-17171D01*
X20446Y-17070D01*
X20480Y-17030D01*
X20513Y-17009D01*
X20580Y-16989D01*
X20647Y-16989D01*
X20748Y-17009D01*
X21151Y-17252D01*
X21151Y-16989D01*
G54D12*
M02*
